<svg xmlns="http://www.w3.org/2000/svg" width="245.914" height="160" viewBox="0 0 245.914 160"><path fill="#FFF" d="M175.435 159.715c-6.315-.175-8.808-.382-9.595-.797-.585-.308-1.065-.69-1.066-.85-.001-.16-.241-.292-.532-.292-.816 0-3.945-3.55-5.051-5.733-.547-1.077-1.71-3.762-2.586-5.965-.875-2.203-1.828-4.529-2.116-5.17-.288-.64-1.421-3.432-2.516-6.204s-2.177-5.478-2.403-6.01a59.38 59.38 0 0 1-.71-1.745 61.741 61.741 0 0 0-.917-2.19c-.342-.78-.621-1.523-.621-1.653 0-.13-.367-1.064-.814-2.074-1.232-2.78-1.441-3.305-1.732-4.358-.148-.533-.615-1.755-1.04-2.714l-1.306-2.967c-.295-.673-.537-1.332-.537-1.466s-.631-1.573-1.402-3.2c-2.3-4.843-6.385-8.42-12.17-10.65-1.81-.699-9.048-.699-10.857 0-5.274 2.034-9.505 5.427-11.541 9.255-.656 1.233-3.303 7.651-5.882 14.263s-4.862 12.414-5.072 12.893c-1.79 4.075-5.812 14.498-5.812 15.058 0 .303-.136.551-.303.551-.167 0-.534.781-.816 1.736-1.21 4.096-4.96 7.682-9.483 9.07-2.225.681-4.56.75-34.185.996-35.526.296-34.468.361-38.334-2.36-1.878-1.323-4.902-5.318-4.902-6.476 0-.267-.218-.703-.484-.97-.647-.646-.925-134.9-.285-137.902.853-4 4.022-8.564 7.028-10.118C10.919-.15 4.16-.056 123.34.05l111.424.1 2.133.951c2.309 1.03 5.896 4.16 6.91 6.03 1.69 3.11 1.635.986 1.877 71.93l.23 67.666-.85 2.521c-1.025 3.04-3.018 6.176-4.756 7.488-3.17 2.391-4.115 2.693-9.422 3.02-5.674.344-42.41.32-55.452-.04zM68.798 108.53c.132-.213 1.096-.387 2.142-.387s2.737-.27 3.758-.602c2.47-.8 7.16-3.178 8.519-4.319 7.754-6.513 11.763-14.679 11.75-23.934-.007-4.79-.725-7.997-2.698-12.056-3.335-6.86-9.264-12.08-16.297-14.348-1.173-.378-2.532-.872-3.02-1.096-1.281-.589-10.412-.505-12.297.113-4.557 1.495-7.137 2.753-9.883 4.82-4.612 3.472-6.68 6.328-10.13 14-.993 2.21-1.878 12-1.15 12.728.23.23.418 1.061.418 1.847 0 2.813 2.553 8.791 5.234 12.26 2.319 2.998 5.82 6.097 8.337 7.375.747.38 1.416.82 1.486.98.07.16.379.291.684.291.305 0 .857.17 1.228.375 1.372.766 4.434 1.564 6.019 1.57.899.002 1.896.174 2.216.381.766.497 3.378.497 3.684.002zm111.678 0c.13-.213 1.183-.387 2.336-.387 2.773 0 6.256-1.199 10.236-3.523 4.14-2.416 8.514-7.392 10.713-12.182 2.38-5.188 2.697-6.674 2.682-12.603-.012-4.365-.164-5.718-.916-8.143-3.721-11.979-13.261-19.703-25.238-20.432-5.016-.306-9.145.54-13.967 2.856-3.174 1.526-4.168 2.261-7.182 5.311-3.854 3.898-5.682 6.91-7.217 11.877-1.285 4.156-1.278 10.858.014 15.511.504 1.813 1.067 3.462 1.252 3.664.186.203.336.684.336 1.066 0 .385.176.698.389.698s.388.335.388.743c0 .41.13.802.29.873.16.07.605.75.99 1.508 1.22 2.404 5.597 6.817 8.803 8.873 1.682 1.08 3.209 1.963 3.395 1.963s1.074.355 1.975.791 2.81.895 4.24 1.021 2.866.376 3.186.555c.813.454 3.006.427 3.295-.04z"/></svg>